<?xml version="1.0" encoding="UTF-8"?>
<!DOCTYPE svg PUBLIC "-//W3C//DTD SVG 1.1//EN" "http://www.w3.org/Graphics/SVG/1.1/DTD/svg11.dtd">
<svg xmlns="http://www.w3.org/2000/svg" version="1.1" width="512px" height="512px" style="shape-rendering:geometricPrecision; text-rendering:geometricPrecision; image-rendering:optimizeQuality; fill-rule:evenodd; clip-rule:evenodd" xmlns:xlink="http://www.w3.org/1999/xlink">
<g><path style="opacity:0.913" fill="#ffffff" d="M 511.5,226.5 C 511.5,234.833 511.5,243.167 511.5,251.5C 505.589,271.992 496.422,290.992 484,308.5C 468.579,329.922 450.412,348.756 429.5,365C 406.272,383.558 381.939,400.558 356.5,416C 289.92,450.183 219.253,464.516 144.5,459C 124.541,455.111 109.708,444.278 100,426.5C 91.8315,410.659 84.8315,394.326 79,377.5C 70.6743,347.809 76.6743,321.476 97,298.5C 98.2893,296.945 98.956,295.279 99,293.5C 74.0766,273.248 49.7433,252.248 26,230.5C 12.1029,215.705 3.26957,198.372 -0.5,178.5C -0.5,169.167 -0.5,159.833 -0.5,150.5C 2.36191,132.086 8.52858,114.753 18,98.5C 28.3915,84.4478 41.8915,74.6145 58.5,69C 80.5662,59.7338 103.566,54.4005 127.5,53C 160.874,49.476 194.207,49.8093 227.5,54C 273.626,61.6485 313.793,81.1485 348,112.5C 349.5,114.667 351,116.833 352.5,119C 364.681,118.964 376.847,118.464 389,117.5C 444.658,116.512 482.658,141.845 503,193.5C 506.676,204.417 509.51,215.417 511.5,226.5 Z M 394.5,256.5 C 396.346,251.177 397.846,245.844 399,240.5C 396.146,242.598 393.479,244.931 391,247.5C 387.301,241.435 384.134,235.102 381.5,228.5C 382.77,226.452 383.103,224.452 382.5,222.5C 379.656,224.103 376.656,224.603 373.5,224C 368.481,221.157 363.814,217.824 359.5,214C 376.961,205.717 395.295,201.384 414.5,201C 420.236,206.639 423.736,213.472 425,221.5C 426.224,232.892 427.224,244.225 428,255.5C 397.679,285.13 363.013,308.464 324,325.5C 323.333,324.833 323.333,324.167 324,323.5C 328.027,318.306 331.86,312.973 335.5,307.5C 334.652,305.717 333.319,305.217 331.5,306C 319.47,317.696 307.804,329.696 296.5,342C 294.246,343.651 291.912,343.818 289.5,342.5C 288.479,341.998 288.312,341.332 289,340.5C 296.147,331.718 303.647,323.218 311.5,315C 310.953,314.075 310.287,313.242 309.5,312.5C 298.722,320.443 289.056,329.61 280.5,340C 275.862,343.422 271.529,343.089 267.5,339C 270.08,335.842 272.413,332.508 274.5,329C 274,328.833 273.5,328.667 273,328.5C 267.766,331.535 262.6,334.701 257.5,338C 254.45,339.714 251.45,339.714 248.5,338C 253.833,332 259.167,326 264.5,320C 261.691,319.82 259.024,320.487 256.5,322C 251.571,326.772 246.237,330.939 240.5,334.5C 237.892,334.077 235.558,333.077 233.5,331.5C 235.267,328.23 237.6,325.397 240.5,323C 239.892,322.13 239.059,321.63 238,321.5C 234.275,324.616 230.442,327.616 226.5,330.5C 193.171,322.559 161.505,310.392 131.5,294C 122.485,288.493 113.818,282.493 105.5,276C 88.1667,261.333 70.8333,246.667 53.5,232C 43.5051,223.347 35.0051,213.514 28,202.5C 18.1472,185.197 15.4805,166.863 20,147.5C 23.1974,133.044 26.8641,118.71 31,104.5C 32.776,101.059 34.9426,97.8922 37.5,95C 61.1555,79.5593 87.1555,70.8926 115.5,69C 146.153,67.5187 176.819,67.1854 207.5,68C 256.29,72.8535 298.624,91.6869 334.5,124.5C 331.206,127.876 327.206,129.376 322.5,129C 316.741,123.238 310.408,118.238 303.5,114C 283.517,102.449 262.184,94.4494 239.5,90C 233.472,89.1697 227.472,89.3364 221.5,90.5C 242.398,96.966 263.064,104.133 283.5,112C 296.275,116.883 307.941,123.549 318.5,132C 298.87,141.265 279.203,150.431 259.5,159.5C 248.758,154.975 237.758,151.141 226.5,148C 204.974,142.695 183.307,138.028 161.5,134C 168.342,121.823 174.176,109.323 179,96.5C 167.127,105.893 158.96,117.893 154.5,132.5C 152.579,133.641 150.579,133.808 148.5,133C 147.483,131.951 147.316,130.784 148,129.5C 153.961,118.412 159.794,107.245 165.5,96C 164.421,95.044 163.255,94.2106 162,93.5C 153.271,106.567 144.938,119.901 137,133.5C 136.075,132.953 135.242,132.287 134.5,131.5C 138.167,122.167 141.833,112.833 145.5,103.5C 144.672,102.585 143.672,101.919 142.5,101.5C 137.143,110.213 132.31,119.213 128,128.5C 125.683,131.097 122.85,131.93 119.5,131C 124.296,119.238 128.963,107.404 133.5,95.5C 133.113,94.2801 132.28,93.6135 131,93.5C 124.131,105.4 117.631,117.567 111.5,130C 108.886,132.338 106.886,132.005 105.5,129C 108.5,120 111.5,111 114.5,102C 112.524,98.6427 110.69,98.8094 109,102.5C 105.333,111.167 101.667,119.833 98,128.5C 95.5904,131.716 92.7571,132.216 89.5,130C 93.6408,119.426 96.9741,108.926 99.5,98.5C 96.8103,100.356 94.6437,102.689 93,105.5C 90,111.833 87,118.167 84,124.5C 81.6094,127.597 78.776,129.763 75.5,131C 80.1264,117.62 84.4597,104.12 88.5,90.5C 87.9206,88.5393 86.5872,87.5393 84.5,87.5C 57.8911,95.8599 43.8911,114.027 42.5,142C 43.1916,156.41 48.025,169.243 57,180.5C 66.7984,192.632 77.6317,203.799 89.5,214C 116.291,235.908 145.291,254.574 176.5,270C 224.422,292.251 274.756,301.918 327.5,299C 356.062,296.045 382.062,286.379 405.5,270C 418.323,259.86 424.156,246.693 423,230.5C 420.644,221.986 415.811,215.319 408.5,210.5C 408.167,210.667 407.833,210.833 407.5,211C 408.309,216.417 408.809,221.917 409,227.5C 410.999,229.493 412.499,231.827 413.5,234.5C 408.637,243.035 402.303,250.369 394.5,256.5 Z M 79.5,97.5 C 80.0967,97.7352 80.4301,98.2352 80.5,99C 76,111.167 71.5,123.333 67,135.5C 64.7887,137.878 62.2887,138.878 59.5,138.5C 62.2099,130.201 65.2099,122.035 68.5,114C 67.8921,113.13 67.0588,112.63 66,112.5C 61.5916,120.315 57.4249,128.315 53.5,136.5C 51.5761,122.512 56.5761,111.679 68.5,104C 72.2299,101.807 75.8965,99.6404 79.5,97.5 Z M 158.5,430.5 C 158.952,433.876 159.618,437.209 160.5,440.5C 158.956,442.446 156.956,442.946 154.5,442C 151.781,440.403 149.614,438.237 148,435.5C 144.25,428.998 140.25,422.665 136,416.5C 138.371,424.45 140.871,432.45 143.5,440.5C 136.933,440.633 131.767,437.966 128,432.5C 125.651,427.802 123.318,423.136 121,418.5C 119.473,420.221 118.473,422.221 118,424.5C 104.839,407.322 95.1726,388.322 89,367.5C 84.9306,341.375 92.264,319.042 111,300.5C 119.333,305.833 127.667,311.167 136,316.5C 136.669,325.183 137.502,333.85 138.5,342.5C 138.559,348.211 137.226,353.544 134.5,358.5C 130.872,346.655 127.872,334.655 125.5,322.5C 122.266,322.237 120.932,323.737 121.5,327C 123.304,342.158 125.971,357.158 129.5,372C 129.369,374.253 128.869,376.419 128,378.5C 125.754,374.509 123.921,370.343 122.5,366C 120.389,357.055 117.889,348.222 115,339.5C 113.92,337.004 112.586,334.67 111,332.5C 112.228,345.041 114.062,357.541 116.5,370C 115.833,372 115.167,372 114.5,370C 111.578,360.895 108.078,352.061 104,343.5C 96.2289,367.792 104.396,384.292 128.5,393C 135.01,395.294 141.677,396.961 148.5,398C 185.481,400.604 221.147,394.937 255.5,381C 303.843,359.335 350.176,334.335 394.5,306C 410.767,294.452 425.934,281.619 440,267.5C 443.779,262.277 446.779,256.61 449,250.5C 453.333,234.833 457.667,219.167 462,203.5C 464,193.5 464,183.5 462,173.5C 460.103,166.271 455.936,160.771 449.5,157C 422.479,145.104 395.146,144.438 367.5,155C 365.297,157.76 364.964,160.76 366.5,164C 367.167,164.667 367.833,164.667 368.5,164C 370.983,161.594 373.65,159.427 376.5,157.5C 377.659,161.122 377.825,164.789 377,168.5C 373.903,176.526 370.403,184.359 366.5,192C 362.824,193.678 359.157,193.511 355.5,191.5C 352.646,194.188 349.646,196.688 346.5,199C 320.469,205.671 295.969,215.838 273,229.5C 273.885,218.525 274.552,207.525 275,196.5C 272.806,199.554 271.139,202.888 270,206.5C 267.803,215.381 266.303,224.381 265.5,233.5C 262.5,235.5 259.5,237.5 256.5,239.5C 256.167,238.833 255.833,238.167 255.5,237.5C 256.775,224.81 258.108,212.143 259.5,199.5C 258.672,198.585 257.672,197.919 256.5,197.5C 253.454,212.442 250.62,227.442 248,242.5C 246.691,244.976 244.858,246.976 242.5,248.5C 242.167,246.333 241.833,244.167 241.5,242C 243.057,231.207 243.557,220.374 243,209.5C 242.587,206.768 241.92,204.101 241,201.5C 240.439,200.978 239.772,200.645 239,200.5C 211.933,207.107 189.433,220.94 171.5,242C 174.817,242.498 178.15,242.665 181.5,242.5C 181.11,245.839 180.61,249.173 180,252.5C 172.121,248.811 164.287,244.977 156.5,241C 192.482,210.993 231.816,185.993 274.5,166C 292.5,158 310.5,150 328.5,142C 355.282,130.923 382.949,127.59 411.5,132C 441.237,137.088 463.071,152.922 477,179.5C 492.238,206.561 495.572,234.895 487,264.5C 471.631,296.038 450.798,323.538 424.5,347C 367.402,397.874 300.735,428.874 224.5,440C 220.467,441.04 216.801,440.374 213.5,438C 210.954,434.41 208.787,430.577 207,426.5C 205.649,424.981 204.149,423.648 202.5,422.5C 202.167,422.833 201.833,423.167 201.5,423.5C 203.74,429.39 206.073,435.223 208.5,441C 207.5,441.333 206.5,441.667 205.5,442C 194.607,442.253 183.774,443.086 173,444.5C 171.5,444 170,443.5 168.5,443C 165.268,438.672 161.934,434.506 158.5,430.5 Z M 88.5,144.5 C 130.098,145.562 171.098,151.062 211.5,161C 220.773,163.202 229.773,166.202 238.5,170C 219.167,181.333 199.833,192.667 180.5,204C 167.868,212.564 155.701,221.731 144,231.5C 119.068,217.248 96.4009,199.914 76,179.5C 68.7319,171.796 62.5653,163.296 57.5,154C 67.3921,149.089 77.7255,145.923 88.5,144.5 Z M 409.5,155.5 C 410.675,155.281 411.675,155.614 412.5,156.5C 411.111,163.607 409.278,170.607 407,177.5C 405.553,181.785 402.719,184.452 398.5,185.5C 399.538,177.011 401.372,168.677 404,160.5C 405.352,158.251 407.185,156.584 409.5,155.5 Z M 390.5,156.5 C 393.85,156.335 397.183,156.502 400.5,157C 397.141,166.744 393.974,176.577 391,186.5C 389.247,185.373 387.413,184.373 385.5,183.5C 382.086,185.957 378.586,188.291 375,190.5C 376.012,181.772 377.679,173.105 380,164.5C 382.271,160.044 385.771,157.378 390.5,156.5 Z M 418.5,157.5 C 424.192,158.84 429.858,160.34 435.5,162C 433.719,168.284 431.552,174.451 429,180.5C 427.89,182.037 426.39,182.703 424.5,182.5C 425.662,176.873 426.162,171.206 426,165.5C 422.543,169.184 420.21,173.517 419,178.5C 417.202,180.972 414.868,182.639 412,183.5C 413.216,174.636 415.383,165.969 418.5,157.5 Z M 439.5,165.5 C 441.957,166.555 443.623,168.388 444.5,171C 444.376,176.19 442.543,180.69 439,184.5C 437.584,182.589 436.75,180.422 436.5,178C 437.426,173.796 438.426,169.629 439.5,165.5 Z M 446.5,177.5 C 447.725,178.152 448.392,179.319 448.5,181C 449.278,184.155 449.445,187.322 449,190.5C 445.7,188.904 444.2,186.237 444.5,182.5C 444.724,180.545 445.391,178.879 446.5,177.5 Z M 430.5,201.5 C 435.715,203.69 440.882,206.024 446,208.5C 445.497,213.526 444.497,218.526 443,223.5C 438.177,216.518 434.011,209.184 430.5,201.5 Z M 236.5,204.5 C 238.484,204.484 239.484,205.484 239.5,207.5C 237.138,223.536 234.638,239.536 232,255.5C 230.651,259.533 228.318,262.866 225,265.5C 225.663,257.843 226.663,250.176 228,242.5C 228.933,236.179 229.266,229.846 229,223.5C 222.333,237.499 220,252.166 222,267.5C 221.439,268.022 220.772,268.355 220,268.5C 216.569,267.189 213.069,266.189 209.5,265.5C 210.602,252.844 211.602,240.177 212.5,227.5C 211.167,227.5 209.833,227.5 208.5,227.5C 206.617,238.8 204.95,250.134 203.5,261.5C 200.956,261.896 198.789,261.229 197,259.5C 196.752,248.731 197.752,238.064 200,227.5C 212.315,219.934 224.482,212.267 236.5,204.5 Z M 335.5,219.5 C 339.44,219.758 343.107,220.924 346.5,223C 353.96,228.126 360.46,234.293 366,241.5C 373.271,251.436 375.437,262.27 372.5,274C 340.719,283.716 308.385,286.049 275.5,281C 262.368,278.974 249.368,276.307 236.5,273C 265.751,248.372 298.751,230.539 335.5,219.5 Z M 192.5,233.5 C 193.097,233.735 193.43,234.235 193.5,235C 192.172,241.466 191.006,247.966 190,254.5C 183.322,246.425 184.156,239.425 192.5,233.5 Z M 141.5,318.5 C 147.603,320.386 153.269,323.053 158.5,326.5C 154.188,331.98 149.688,337.313 145,342.5C 143.723,334.506 142.556,326.506 141.5,318.5 Z M 175.5,331.5 C 203.825,339.915 232.492,347.081 261.5,353C 263.949,353.725 266.283,354.725 268.5,356C 229.898,375.901 188.898,385.567 145.5,385C 148.388,368.057 155.222,352.89 166,339.5C 168.795,336.189 171.961,333.523 175.5,331.5 Z"/></g>
<g><path style="opacity:0.619" fill="#ffffff" d="M 186.5,414.5 C 189.481,419.236 191.814,424.403 193.5,430C 193.387,431.28 192.72,432.113 191.5,432.5C 188.701,427.293 186.368,421.793 184.5,416C 185.416,415.722 186.082,415.222 186.5,414.5 Z"/></g>
<g><path style="opacity:0.516" fill="#ffffff" d="M 170.5,419.5 C 174.186,421.161 176.186,424.161 176.5,428.5C 172.814,426.839 170.814,423.839 170.5,419.5 Z"/></g>
<g><path style="opacity:0.509" fill="#ffffff" d="M 158.5,430.5 C 156.53,428.353 154.697,426.02 153,423.5C 152.817,420.718 153.984,420.051 156.5,421.5C 157.642,424.399 158.308,427.399 158.5,430.5 Z"/></g>
</svg>
